<svg width="1294" height="344" viewBox="0 0 1294 344" fill="none" xmlns="http://www.w3.org/2000/svg">
<g clip-path="url(#clip0)">
<rect width="1294" height="344" fill="white"/>
<rect x="-0.710938" y="-114.44" width="1297.03" height="670.429" fill="url(#paint0_linear)"/>
<g opacity="0.1">
<path fill-rule="evenodd" clip-rule="evenodd" d="M355.684 142.559V555.99H359.327V142.559H355.684ZM373.901 286.593V555.99H377.545V286.593H373.901ZM393.941 555.99V142.559H397.585V555.99H393.941ZM412.159 234.772V555.99H415.803V234.772H412.159ZM430.377 555.99V198.192H434.02V555.99H430.377ZM450.417 190.952V555.99H454.06V190.952H450.417ZM468.634 555.99V286.593H472.278V555.99H468.634ZM486.852 215.719V555.99H490.496V215.719H486.852ZM506.892 555.99V286.593H510.536V555.99H506.892ZM525.11 386.045V555.99H528.753V386.045H525.11ZM543.328 555.99V349.084H546.971V555.99H543.328ZM563.367 441.297V555.99H567.011V441.297H563.367ZM581.585 555.99V334.986H585.229V555.99H581.585ZM599.803 190.952V555.99H603.447V190.952H599.803ZM619.843 555.99V250.013H623.486V555.99H619.843ZM638.061 322.03V555.99H641.704V322.03H638.061ZM656.279 555.99V372.709H659.922V555.99H656.279ZM676.318 421.482V555.99H679.962V421.482H676.318ZM694.536 555.99V358.61H698.18V555.99H694.536Z" fill="#48279A"/>
<path fill-rule="evenodd" clip-rule="evenodd" d="M713.379 84.9712V555.99H717.023V84.9712H713.379ZM731.597 249.218V555.99H735.24V249.218H731.597ZM751.636 555.99V84.9712H755.28V555.99H751.636ZM769.854 190.15V555.99H773.498V190.15H769.854ZM788.072 555.99V148.231H791.716V555.99H788.072ZM808.112 140.228V555.99H811.755V140.228H808.112ZM826.33 555.99V249.218H829.973V555.99H826.33ZM844.548 168.428V555.99H848.191V168.428H844.548ZM864.587 555.99V249.218H868.231V555.99H864.587ZM882.805 362.4V555.99H886.449V362.4H882.805ZM901.023 555.99V320.1H904.667V555.99H901.023ZM921.063 425.279V555.99H924.706V425.279H921.063ZM939.281 555.99V304.094H942.924V555.99H939.281ZM957.499 140.228V555.99H961.142V140.228H957.499ZM977.538 555.99V207.299H981.182V555.99H977.538ZM995.756 289.613V555.99H999.4V289.613H995.756ZM1013.97 555.99V347.157H1017.62V555.99H1013.97ZM1034.01 402.795V555.99H1037.66V402.795H1034.01ZM1052.23 555.99V331.151H1055.88V555.99H1052.23Z" fill="#48279A"/>
<path fill-rule="evenodd" clip-rule="evenodd" d="M1066.01 209.602V555.99H1069.66V209.602H1066.01ZM1084.26 330.4V555.99H1087.91V330.4H1084.26ZM1104.34 555.99V209.602H1108V555.99H1104.34ZM1122.6 286.958V555.99H1126.25V286.958H1122.6ZM1140.86 555.99V256.092H1144.51V555.99H1140.86ZM1160.94 250.376V555.99H1164.59V250.376H1160.94ZM1179.19 555.99V330.4H1182.84V555.99H1179.19ZM1197.45 270.954V555.99H1201.1V270.954H1197.45ZM1217.53 555.99V330.4H1221.18V555.99H1217.53ZM1235.78 413.472V555.99H1239.44V413.472H1235.78ZM1254.04 555.99V382.606H1257.69V555.99H1254.04ZM1274.12 459.962V555.99H1277.77V459.962H1274.12ZM1292.38 555.99V370.793H1296.03V555.99H1292.38Z" fill="#48279A"/>
</g>
</g>
<defs>
<linearGradient id="paint0_linear" x1="1738.24" y1="432.879" x2="1583.49" y2="-96.5125" gradientUnits="userSpaceOnUse">
<stop stop-color="#128CF4"/>
<stop offset="1" stop-color="#0162AB"/>
</linearGradient>
<clipPath id="clip0">
<rect width="1294" height="344" fill="white"/>
</clipPath>
</defs>
</svg>
